#!OML:ASF I:\Actors\actors\Patient Classification 2\Patient 1\Session 1\actor1.ASF
:FULLY-SPECIFIED
:DEGREES
451
root -0.495313 18.5291 5.31374 -6.67684 3.6117 -0.219601
lowerback 10.5858 -0.189521 -0.750097
upperback -0.265458 -0.342459 0.0478191
thorax -6.21969 -0.143326 0.52697
lowerneck -14.2813 -2.54853 -1.83685
upperneck 26.3699 -4.07963 3.26881
head 10.9777 -1.64401 0.940499
rclavicle 1.70396e-014 1.9133e-014
rhumerus -28.1343 32.0833 -81.2739
rradius 125.996
rwrist 5.94724
rhand -37.4426 -56.4906
rfingers 7.12502
rthumb -10.5016 -86.2083
lclavicle 1.70396e-014 1.9133e-014
lhumerus -20.5435 -40.2612 68.1976
lradius 125.201
lwrist 21.2837
lhand -27.1556 -31.3911
lfingers 7.12502
lthumb -0.570416 -1.41215
rfemur 15.3338 1.01156 13.7169
rtibia -1.59028e-014
rfoot -18.4243 -13.1102
rtoes -7.58505
lfemur -0.484441 -3.54127 -14.6199
ltibia 24.8014
lfoot -19.4603 6.53538
ltoes -56.6097
452
root -0.499625 18.523 5.28912 -6.61051 3.56424 -0.161093
lowerback 11.0189 -0.199801 -0.856377
upperback -0.0867227 -0.372946 0.0411566
thorax -6.27418 -0.155196 0.586695
lowerneck -14.2278 -2.51385 -1.6917
upperneck 26.0572 -4.00981 3.10645
head 10.8407 -1.62179 0.866526
rclavicle 3.28305e-015 9.93923e-016
rhumerus -28.2192 32.1279 -81.3403
rradius 126.438
rwrist 6.00893
rhand -37.5126 -55.8885
rfingers 7.12502
rthumb -10.5691 -85.6028
lclavicle 3.28305e-015 9.93923e-016
lhumerus -20.7264 -40.2342 68.5799
lradius 125.282
lwrist 20.773
lhand -27.5679 -31.3456
lfingers 7.12502
lthumb -0.968562 -1.36806
rfemur 15.1523 1.00026 13.6611
rtibia 1.90833e-014
rfoot -18.2154 -13.2096
rtoes -7.8668
lfemur -0.847634 -3.46289 -14.6597
ltibia 25.1927
lfoot -19.4868 6.54173
ltoes -56.7328
453
root -0.502674 18.5158 5.25758 -6.48846 3.48964 -0.210499
lowerback 11.4796 -0.228812 -0.845262
upperback 0.121212 -0.409734 0.0949843
thorax -6.3129 -0.173041 0.645196
lowerneck -14.1629 -2.48423 -1.73523
upperneck 25.6451 -3.95333 3.15454
head 10.6753 -1.5999 0.898586
rclavicle -1.00852e-014 -5.2181e-015
rhumerus -28.3427 32.2346 -81.4573
rradius 126.809
rwrist 6.10337
rhand -37.6796 -56.0809
rfingers 7.12502
rthumb -10.7303 -85.7868
lclavicle -1.00852e-014 -5.2181e-015
lhumerus -21.1455 -40.1936 69.1844
lradius 125.38
lwrist 20.0175
lhand -28.1028 -31.4123
lfingers 7.12502
lthumb -1.48523 -1.43768
rfemur 14.8681 0.995279 13.721
rtibia 1.11319e-014
rfoot -18.0036 -13.2943
rtoes -8.02643
lfemur -1.35682 -3.2678 -14.5502
ltibia 25.6797
lfoot -19.54 6.45149
ltoes -56.7809
454
root -0.50291 18.5073 5.22225 -6.30906 3.38314 -0.248756
lowerback 11.9808 -0.240459 -0.835648
upperback 0.319341 -0.420911 0.192416
thorax -6.38405 -0.177402 0.746855
lowerneck -13.9872 -2.45182 -1.89484
upperneck 25.0779 -3.86488 3.22781
head 10.4346 -1.57417 0.964061
rclavicle 1.51263e-015 4.72114e-016
rhumerus -28.5386 32.4114 -81.5635
rradius 127.103
rwrist 6.36967
rhand -37.8011 -55.8994
rfingers 7.12502
rthumb -10.8474 -85.5992
lclavicle 1.51263e-015 4.72114e-016
lhumerus -21.6945 -39.9456 70.0127
lradius 125.589
lwrist 19.8575
lhand -27.683 -31.659
lfingers 7.12502
lthumb -1.07976 -1.68199
rfemur 14.4988 1.01968 13.76
rtibia -4.77083e-015
rfoot -17.8359 -13.3966
rtoes -8.11304
lfemur -2.00433 -2.99317 -14.4522
ltibia 26.2973
lfoot -19.6202 6.34726
ltoes -56.8243
455
root -0.503823 18.4961 5.18027 -6.0651 3.32421 -0.212334
lowerback 12.5484 -0.235869 -0.875137
upperback 0.555521 -0.420449 0.246262
thorax -6.45148 -0.175415 0.828975
lowerneck -13.9597 -2.43156 -1.91642
upperneck 24.4613 -3.78169 3.13553
head 10.2006 -1.55523 0.944678
rclavicle -1.07617e-014 -1.43746e-014
rhumerus -28.7032 32.4756 -81.6863
rradius 127.333
rwrist 7.00314
rhand -37.4732 -56.0696
rfingers 7.12502
rthumb -10.5311 -85.7857
lclavicle -1.07617e-014 -1.43746e-014
lhumerus -22.1564 -39.7239 70.9254
lradius 125.717
lwrist 19.603
lhand -27.1514 -31.8687
lfingers 7.12502
lthumb -0.566309 -1.88975
rfemur 14.049 1.00015 13.7109
rtibia -5.24792e-014
rfoot -17.6383 -13.5572
rtoes -8.32037
lfemur -2.82127 -2.77502 -14.444
ltibia 27.0532
lfoot -19.7319 6.1956
ltoes -56.7403
456
root -0.505425 18.4803 5.12925 -5.7886 3.29055 -0.254177
lowerback 13.2282 -0.253965 -0.807354
upperback 0.826729 -0.435852 0.289701
thorax -6.54373 -0.184467 0.843335
lowerneck -14.0332 -2.41086 -1.86472
upperneck 23.7894 -3.71545 3.04565
head 9.96795 -1.53597 0.910781
rclavicle 1.58164e-016 1.29272e-014
rhumerus -28.6856 32.1798 -81.6933
rradius 127.263
rwrist 7.6914
rhand -38.0421 -55.9514
rfingers 7.12502
rthumb -11.0798 -85.639
lclavicle 1.58164e-016 1.29272e-014
lhumerus -22.631 -39.6171 71.8905
lradius 125.688
lwrist 18.815
lhand -27.1411 -32.096
lfingers 7.12502
lthumb -0.556338 -2.11702
rfemur 12.538 0.939182 13.762
rtibia 1.99553
rfoot -18.1351 -13.1795
rtoes -9.25495
lfemur -3.7971 -2.51517 -14.3332
ltibia 27.9353
lfoot -19.807 5.92086
ltoes -56.5602
457
root -0.505386 18.4613 5.07216 -5.44218 3.25745 -0.292028
lowerback 13.9518 -0.264746 -0.70427
upperback 1.07677 -0.436791 0.311892
thorax -6.68196 -0.187358 0.813303
lowerneck -13.9408 -2.41476 -1.84946
upperneck 22.9333 -3.70999 3.10869
head 9.64681 -1.53426 0.930527
rclavicle -4.93894e-015 -3.08737e-015
rhumerus -29.1527 32.581 -82.2584
rradius 127.43
rwrist 7.36239
rhand -37.7726 -56.05
rfingers 7.12502
rthumb -10.82 -85.7513
lclavicle -4.93894e-015 -3.08737e-015
lhumerus -23.0266 -39.5913 72.7976
lradius 125.523
lwrist 17.9437
lhand -27.0551 -32.3007
lfingers 7.12502
lthumb -0.473335 -2.32148
rfemur 8.80057 0.876121 13.8002
rtibia 8.2837
rfoot -20.3537 -11.5378
rtoes -10.4935
lfemur -4.96642 -2.14028 -14.2244
ltibia 28.9605
lfoot -19.8576 5.61718
ltoes -56.5147
458
root -0.503385 18.4391 5.00718 -5.02373 3.26259 -0.261968
lowerback 14.8055 -0.269828 -0.622166
upperback 1.27569 -0.435232 0.299962
thorax -6.94537 -0.188 0.759895
lowerneck -13.7615 -2.42346 -1.8803
upperneck 21.9672 -3.72558 3.29261
head 9.27932 -1.53542 0.99772
rclavicle 5.46735e-015 -7.45443e-016
rhumerus -29.5361 32.6245 -82.6633
rradius 127.318
rwrist 7.45933
rhand -38.1694 -55.343
rfingers 7.12502
rthumb -11.2026 -85.0239
lclavicle 5.46735e-015 -7.45443e-016
lhumerus -23.317 -39.6217 73.6749
lradius 125.197
lwrist 17.087
lhand -26.9877 -32.669
lfingers 7.12502
lthumb -0.408177 -2.68965
rfemur 6.16243 0.77638 13.714
rtibia 12.1655
rfoot -21.5593 -10.7242
rtoes -11.7875
lfemur -6.33726 -1.75477 -14.2038
ltibia 30.1583
lfoot -19.9552 5.28402
ltoes -56.4713
459
root -0.491858 18.4087 4.9265 -4.53984 3.15302 -0.218261
lowerback 15.8858 -0.274217 -0.427887
upperback 1.45745 -0.413833 0.272435
thorax -7.35191 -0.182014 0.6237
lowerneck -13.6919 -2.37583 -1.84916
upperneck 20.9141 -3.64321 3.35932
head 8.90092 -1.49877 1.02441
rclavicle 3.49271e-015 -4.39811e-015
rhumerus -29.7826 32.6889 -82.999
rradius 127.068
rwrist 7.82653
rhand -38.1997 -55.106
rfingers 7.12502
rthumb -11.2319 -84.7853
lclavicle 3.49271e-015 -4.39811e-015
lhumerus -23.543 -39.5676 74.6013
lradius 124.8
lwrist 16.3196
lhand -27.2836 -33.3547
lfingers 7.12502
lthumb -0.693979 -3.37606
rfemur 3.6235 0.282753 13.4968
rtibia 15.4913
rfoot -22.14 -9.75741
rtoes -12.8879
lfemur -7.85726 -1.2997 -14.2272
ltibia 31.4476
lfoot -20.0813 4.92934
ltoes -56.3075
460
root -0.462098 18.3682 4.82626 -3.9568 2.79849 -0.109686
lowerback 17.0661 -0.257045 -0.0771619
upperback 1.69881 -0.335114 0.189612
thorax -7.74781 -0.155019 0.325249
lowerneck -13.7698 -2.30929 -1.71474
upperneck 19.6697 -3.51153 3.25181
head 8.48318 -1.4497 0.979115
rclavicle -5.23363e-015 -2.33572e-015
rhumerus -29.6696 32.7916 -83.1491
rradius 126.652
rwrist 8.26091
rhand -38.1038 -55.2575
rfingers 7.12502
rthumb -11.1394 -84.9419
lclavicle -5.23363e-015 -2.33572e-015
lhumerus -23.4689 -39.3939 75.4204
lradius 124.353
lwrist 15.6859
lhand -27.5568 -34.0321
lfingers 7.12502
lthumb -0.957817 -4.0545
rfemur 0.947494 -0.384953 13.0886
rtibia 18.5297
rfoot -22.2376 -8.54777
rtoes -13.5379
lfemur -9.56263 -0.729186 -14.3973
ltibia 32.8119
lfoot -20.2199 4.73688
ltoes -56.2483
461
root -0.453396 18.3245 4.73549 -3.57524 2.79054 0.0207509
lowerback 18.2997 -0.303591 -0.00730581
upperback 2.13722 -0.382844 0.169385
thorax -7.95089 -0.179799 0.281
lowerneck -14.0333 -2.2878 -1.70465
upperneck 18.3186 -3.44227 3.29071
head 8.07602 -1.42315 0.995239
rclavicle 2.33572e-015 -3.72721e-015
rhumerus -29.2848 32.9053 -83.1382
rradius 126.2
rwrist 8.42758
rhand -38.078 -55.439
rfingers 7.12502
rthumb -11.1145 -85.1247
lclavicle 2.33572e-015 -3.72721e-015
lhumerus -23.0351 -39.2181 76.0786
lradius 123.853
lwrist 15.2196
lhand -27.6428 -34.6642
lfingers 7.12502
lthumb -1.04097 -4.68697
rfemur -1.21115 -0.913078 12.823
rtibia 21.3152
rfoot -22.716 -7.65287
rtoes -13.8981
lfemur -11.0717 -0.208179 -14.5012
ltibia 34.2169
lfoot -20.3371 4.23158
ltoes -56.2794
462
root -0.444259 18.277 4.64055 -3.1994 2.78549 0.159702
lowerback 19.6579 -0.363852 0.0982053
upperback 2.59287 -0.440761 0.126339
thorax -8.1957 -0.210481 0.196123
lowerneck -14.4428 -2.25427 -1.73078
upperneck 16.9326 -3.35878 3.39339
head 7.68954 -1.38482 1.03887
rclavicle -5.54112e-015 -8.59744e-015
rhumerus -28.7566 33.0605 -83.0584
rradius 125.526
rwrist 8.91532
rhand -38.297 -55.7334
rfingers 7.12502
rthumb -11.3257 -85.4076
lclavicle -5.54112e-015 -8.59744e-015
lhumerus -22.4577 -39.0705 76.625
lradius 123.324
lwrist 14.7452
lhand -27.747 -35.2819
lfingers 7.12502
lthumb -1.14154 -5.30521
rfemur -3.21784 -1.31197 12.5729
rtibia 23.8231
rfoot -23.1964 -6.8909
rtoes -14.1245
lfemur -12.5968 0.313975 -14.6277
ltibia 35.6451
lfoot -20.4691 3.70603
ltoes -56.2318
